# xmcd CD database file
#
# Track frame offsets:
#	150
#	18317
#	34370
#	48687
#	60212
#	77845
#	91440
#	111422
#	122347
#	135775
#	149095
#
# Disc length: 2301 seconds
#
# Revision: 0
# Processed by: cddbd v1.5.1PL0 Copyright (c) Steve Scherf et al.
# Submitted via: CDex 1.51
#
DISCID=9208fb0b
DTITLE=Various Artist - Country Hope
DYEAR=1994
DGENRE=Country
TTITLE0=There is a way - Jeff and Sheri Easter
TTITLE1=He looked beyond my fault - Heirloom
TTITLE2=Whispering hope - Softly and tenderly - Jim Hendricks
TTITLE3=God's about to bless you - Kelly Nelon Thompson
TTITLE4=The cross road - Barbara Fairchild
TTITLE5=Where shadows never fall - Glen Campbell
TTITLE6=The Saviour who weeps - Vince Wilcox and Tanya Goodman Sykes
TTITLE7=Just over in gloryland - Dennis Parker
TTITLE8=I've never been out of His care - Dallas Holm
TTITLE9=Blessed assurance - Jim Hendricks
TTITLE10=The King is coming - The Gaither Vocal Band
EXTD=YEAR: 1994
EXTT0=
EXTT1=
EXTT2=
EXTT3=
EXTT4=
EXTT5=
EXTT6=
EXTT7=
EXTT8=
EXTT9=
EXTT10=
PLAYORDER=
